<svg width="19" height="20" viewBox="0 0 19 20" fill="none" xmlns="http://www.w3.org/2000/svg">
<path d="M17.7977 15.3332L14.7887 12.3242L12.4742 11.368C13.2449 10.2721 13.6577 8.96473 13.6562 7.625C13.6562 4.02365 10.7264 1.09375 7.125 1.09375C3.52365 1.09375 0.59375 4.02365 0.59375 7.625C0.59375 11.2264 3.52365 14.1562 7.125 14.1562C8.47639 14.1578 9.7946 13.7378 10.896 12.9548L11.8497 15.263L14.8586 18.2721C15.0516 18.4651 15.2807 18.6182 15.5328 18.7226C15.7849 18.827 16.0552 18.8808 16.3281 18.8808C16.601 18.8808 16.8712 18.8271 17.1233 18.7226C17.3755 18.6182 17.6046 18.4652 17.7976 18.2722C17.9905 18.0792 18.1436 17.8501 18.2481 17.598C18.3525 17.3459 18.4063 17.0756 18.4063 16.8027C18.4063 16.5298 18.3526 16.2596 18.2481 16.0074C18.1437 15.7553 17.9906 15.5262 17.7977 15.3332ZM1.78125 7.625C1.78125 4.67852 4.17852 2.28125 7.125 2.28125C10.0715 2.28125 12.4688 4.67852 12.4688 7.625C12.4688 10.5715 10.0715 12.9688 7.125 12.9688C4.17852 12.9688 1.78125 10.5715 1.78125 7.625ZM16.9579 17.4324C16.7907 17.5992 16.5643 17.6929 16.3281 17.6929C16.092 17.6929 15.8655 17.5992 15.6983 17.4324L12.8568 14.5909L11.9701 12.4447L14.1164 13.3313L16.958 16.1729C17.1247 16.3401 17.2184 16.5665 17.2184 16.8027C17.2184 17.0388 17.1247 17.2653 16.9579 17.4324Z" fill="#A0BCCD"/>
</svg>
